# xmcd CD database file
#
# Track frame offsets:
#	150
#	31465
#	48292
#	86958
#	116215
#	151797
#	168478
#
# Disc length: 2658 seconds
#
# Revision: 0
# Processed by: cddbd v1.5.2PL0 Copyright (c) Steve Scherf et al.
# Submitted via: CDex 1.51
#
DISCID=550a6007
DTITLE=Christoph Grab Raw Vision - Code Talker
DYEAR=2015
DGENRE=Jazz
TTITLE0=Das furchtbare Schweigen der Guten
TTITLE1=Protect Me From What I Want
TTITLE2=Was ist wenn ... ?
TTITLE3=Kellerassel
TTITLE4=Tribeca
TTITLE5=Fluchtpunkt
TTITLE6=Schattenreich
EXTD=YEAR: 2015
EXTT0=
EXTT1=
EXTT2=
EXTT3=
EXTT4=
EXTT5=
EXTT6=
PLAYORDER=
